<svg width="48" height="48" viewBox="0 0 48 48" fill="none" xmlns="http://www.w3.org/2000/svg">
<path opacity="0.4" d="M34.6673 26.6667C34.6673 32.5574 29.8913 37.3334 24.0007 37.3334C18.11 37.3334 13.334 32.5574 13.334 26.6667C13.334 21.9147 18.7527 15.1307 21.866 11.6267C23.0007 10.3494 25.0007 10.3494 26.1353 11.6267C26.806 12.5694 27.27 14.6467 27.5686 16.4947C27.7606 17.6867 29.3233 18.0174 29.9926 17.012C30.3113 16.5347 31.022 16.5507 31.3047 17.0507C32.9793 20.0067 34.6673 24.4667 34.6673 26.6667Z" fill="#27AE60"/>
<path d="M19.9997 32C19.6583 32 19.317 31.8693 19.057 31.6093C18.5357 31.088 18.5357 30.2453 19.057 29.724L27.057 21.724C27.5783 21.2027 28.421 21.2027 28.9423 21.724C29.4637 22.2453 29.4637 23.088 28.9423 23.6093L20.9423 31.6093C20.6823 31.8693 20.341 32 19.9997 32Z" fill="#27AE60"/>
<path d="M28.666 32C29.7706 32 30.666 31.1046 30.666 30C30.666 28.8954 29.7706 28 28.666 28C27.5614 28 26.666 28.8954 26.666 30C26.666 31.1046 27.5614 32 28.666 32Z" fill="#27AE60"/>
<path d="M19.334 25.3334C20.4386 25.3334 21.334 24.4379 21.334 23.3334C21.334 22.2288 20.4386 21.3334 19.334 21.3334C18.2294 21.3334 17.334 22.2288 17.334 23.3334C17.334 24.4379 18.2294 25.3334 19.334 25.3334Z" fill="#27AE60"/>
</svg>
