<svg width="20" height="20" viewBox="0 0 20 20" fill="none" xmlns="http://www.w3.org/2000/svg">
<path opacity="0.4" d="M18.29 6.64508C18.3375 5.80341 17.7467 5.03091 16.9142 4.89341C13.455 4.32425 13.7208 1.66675 10.0008 1.66675C6.28082 1.66675 6.54666 4.32425 3.08749 4.89341C2.25499 5.03008 1.66416 5.80258 1.71166 6.64508C2.06832 13.0034 4.61249 16.0242 10.0008 18.3334C15.3892 16.0242 17.9333 13.0034 18.29 6.64508Z" fill="#174F2E"/>
<path d="M9.16557 13.3333C8.95224 13.3333 8.73891 13.2516 8.57641 13.0891L6.07641 10.5891C5.75057 10.2633 5.75057 9.73663 6.07641 9.4108C6.40224 9.08496 6.92891 9.08496 7.25474 9.4108L9.16557 11.3216L12.7431 7.74413C13.0689 7.4183 13.5956 7.4183 13.9214 7.74413C14.2472 8.06996 14.2472 8.59663 13.9214 8.92246L9.75474 13.0891C9.59224 13.2516 9.37891 13.3333 9.16557 13.3333Z" fill="#174F2E"/>
</svg>
