<svg width="20" height="20" viewBox="0 0 20 20" fill="none" xmlns="http://www.w3.org/2000/svg">
<path opacity="0.3" d="M10.0013 18.3334C14.6037 18.3334 18.3346 14.6025 18.3346 10.0001C18.3346 5.39771 14.6037 1.66675 10.0013 1.66675C5.39893 1.66675 1.66797 5.39771 1.66797 10.0001C1.66797 14.6025 5.39893 18.3334 10.0013 18.3334Z" fill="#174F2E"/>
<path d="M9.16557 13.3332C8.95224 13.3332 8.73891 13.2515 8.57641 13.089L6.07641 10.589C5.75057 10.2632 5.75057 9.73655 6.07641 9.41072C6.40224 9.08488 6.92891 9.08488 7.25474 9.41072L9.16557 11.3215L16.9097 3.57738C17.2356 3.25155 17.7622 3.25155 18.0881 3.57738C18.4139 3.90322 18.4139 4.42988 18.0881 4.75572L9.75474 13.089C9.59224 13.2515 9.37891 13.3332 9.16557 13.3332Z" fill="#174F2E"/>
</svg>
