<svg width="24" height="24" viewBox="0 0 24 24" fill="none" xmlns="http://www.w3.org/2000/svg">
<path d="M21 10C22.1046 10 23 9.10457 23 8C23 6.89543 22.1046 6 21 6C19.8954 6 19 6.89543 19 8C19 9.10457 19.8954 10 21 10Z" fill="#EB5757"/>
<path opacity="0.35" d="M18 15H17C16.447 15 16 14.552 16 14C16 13.448 16.447 13 17 13H18C19.103 13 20 12.103 20 11V8C20 7.448 20.447 7 21 7C21.553 7 22 7.448 22 8V11C22 13.206 20.206 15 18 15Z" fill="#EB5757"/>
<path opacity="0.35" d="M13 9H7C5.895 9 5 9.895 5 11V14C5 15.105 5.895 16 7 16H13C14.105 16 15 15.105 15 14V11C15 9.895 14.105 9 13 9Z" fill="#EB5757"/>
<path d="M10 3C6.134 3 2 6.134 2 10V17C2 19.209 3.791 21 6 21H14C16.209 21 18 19.209 18 17V10C18 6.134 13.866 3 10 3ZM5 14V11C5 9.895 5.895 9 7 9V16C5.895 16 5 15.105 5 14ZM9 16V9H11V16H9ZM15 14C15 15.105 14.105 16 13 16V9C14.105 9 15 9.895 15 11V14Z" fill="#EB5757"/>
</svg>
