<svg width="20" height="20" viewBox="0 0 20 20" fill="none" xmlns="http://www.w3.org/2000/svg">
<path opacity="0.35" d="M9.99935 18.3334C14.6017 18.3334 18.3327 14.6025 18.3327 10.0001C18.3327 5.39771 14.6017 1.66675 9.99935 1.66675C5.39698 1.66675 1.66602 5.39771 1.66602 10.0001C1.66602 14.6025 5.39698 18.3334 9.99935 18.3334Z" fill="#47A9E9"/>
<path d="M9.16602 6.66675C9.16602 6.66675 9.16602 13.8767 9.16602 14.1667C9.16602 14.6267 9.53935 15.0001 9.99935 15.0001C10.4593 15.0001 10.8327 14.6267 10.8327 14.1667C10.8327 13.8767 10.8327 6.66675 10.8327 6.66675H9.16602Z" fill="#47A9E9"/>
<path d="M5.83398 10C5.83398 9.78667 5.91565 9.57334 6.07815 9.41084L9.41148 6.0775C9.73732 5.75167 10.264 5.75167 10.5898 6.0775L13.9232 9.41084C14.249 9.73667 14.249 10.2633 13.9232 10.5892C13.5973 10.915 13.0707 10.915 12.7448 10.5892L10.0007 7.845L7.25648 10.5892C6.93065 10.915 6.40398 10.915 6.07815 10.5892C5.91565 10.4267 5.83398 10.2133 5.83398 10Z" fill="#47A9E9"/>
</svg>
