<svg width="25" height="22" viewBox="0 0 25 22" fill="none" xmlns="http://www.w3.org/2000/svg">
<g clip-path="url(#clip0_315_6500)">
<path d="M-0.00390625 1.62948V20.355C-0.00390625 21.2513 0.729468 21.9847 1.62581 21.9847H12.8138C21.2721 21.9847 24.939 17.2503 24.939 10.9678C24.939 4.71779 21.2721 -0.000244141 12.8138 -0.000244141H1.62581C0.729468 -0.000244141 -0.00390625 0.73313 -0.00390625 1.62948Z" fill="white"/>
<path d="M7.48438 4.59551V18.4318H13.5062C18.9739 18.4318 21.3451 15.3435 21.3451 10.9759C21.3451 6.79563 18.9739 3.55249 13.5062 3.55249H8.5274C7.94884 3.55249 7.48438 4.02511 7.48438 4.59551Z" fill="#CC0066"/>
<path d="M12.8213 20.4936H3.09187C2.22812 20.4936 1.52734 19.7929 1.52734 18.9291V3.0638C1.52734 2.20005 2.22812 1.49927 3.09187 1.49927H12.8213C22.0537 1.49927 23.4308 7.43959 23.4308 10.9761C23.4308 17.112 19.658 20.4936 12.8213 20.4936ZM3.09187 2.02078C2.51332 2.02078 2.04885 2.48525 2.04885 3.0638V18.9291C2.04885 19.5077 2.51332 19.9721 3.09187 19.9721H12.8213C19.3239 19.9721 22.9093 16.7779 22.9093 10.9761C22.9093 3.18603 16.586 2.02078 12.8213 2.02078H3.09187V2.02078Z" fill="black"/>
<path d="M9.60111 9.10996C9.81298 9.10996 10.0085 9.14255 10.196 9.20774C10.3834 9.27293 10.5382 9.37886 10.6767 9.50924C10.8071 9.64776 10.913 9.81888 10.9945 10.0144C11.0679 10.2182 11.1086 10.4545 11.1086 10.7315C11.1086 10.976 11.076 11.196 11.019 11.3997C10.9538 11.6034 10.8641 11.7827 10.7419 11.9294C10.6197 12.076 10.4649 12.1901 10.2774 12.2798C10.09 12.3612 9.87002 12.4101 9.61741 12.4101H8.19141V9.10181H9.60111V9.10996ZM9.55222 11.8071C9.65815 11.8071 9.75594 11.7908 9.86187 11.7583C9.95965 11.7257 10.0493 11.6686 10.1226 11.5871C10.196 11.5056 10.2612 11.4079 10.31 11.2775C10.3589 11.1471 10.3834 11.0004 10.3834 10.813C10.3834 10.65 10.3671 10.4952 10.3345 10.3648C10.3019 10.2345 10.2449 10.1122 10.1715 10.0226C10.0982 9.93296 10.0004 9.85148 9.87817 9.80259C9.75594 9.75369 9.60926 9.72925 9.42999 9.72925H8.90848V11.8153H9.55222V11.8071Z" fill="white"/>
<path d="M14.0511 9.10996V9.7211H12.3073V10.43H13.9125V10.9923H12.3073V11.799H14.0918V12.4101H11.582V9.10181H14.0511V9.10996Z" fill="white"/>
<path d="M16.5436 9.10999L17.7822 12.4183H17.0244L16.7718 11.6849H15.5332L15.2724 12.4183H14.5391L15.7858 9.10999H16.5436V9.10999ZM16.5844 11.139L16.1688 9.92485H16.1606L15.7288 11.139H16.5844Z" fill="white"/>
<path d="M18.9635 9.10999V11.8072H20.5769V12.4183H18.2383V9.10999H18.9635V9.10999Z" fill="white"/>
<path d="M4.76207 12.2878C5.60363 12.2878 6.28586 11.6056 6.28586 10.764C6.28586 9.92246 5.60363 9.24023 4.76207 9.24023C3.9205 9.24023 3.23828 9.92246 3.23828 10.764C3.23828 11.6056 3.9205 12.2878 4.76207 12.2878Z" fill="black"/>
<path d="M5.91543 18.4321C4.6361 18.4321 3.60938 17.3972 3.60938 16.126V14.3252C3.60938 13.6896 4.12274 13.1681 4.76648 13.1681C5.40207 13.1681 5.92358 13.6815 5.92358 14.3252V18.4321H5.91543Z" fill="black"/>
</g>
<defs>
<clipPath id="clip0_315_6500">
<rect width="24.9429" height="21.9849" fill="white"/>
</clipPath>
</defs>
</svg>
