<svg width="24" height="19" viewBox="0 0 24 19" fill="none" xmlns="http://www.w3.org/2000/svg">
<g clip-path="url(#clip0_315_6494)">
<path d="M4.32104 18.456V17.2284C4.32104 16.7588 4.03501 16.4514 3.54399 16.4514C3.29849 16.4514 3.03152 16.5324 2.84799 16.7994C2.70498 16.5753 2.49999 16.4514 2.19251 16.4514C1.98752 16.4514 1.78253 16.5133 1.62045 16.7374V16.4919H1.19141V18.456H1.62045V17.3714C1.62045 17.0234 1.80398 16.859 2.09001 16.859C2.37604 16.859 2.51906 17.0425 2.51906 17.3714V18.456H2.9481V17.3714C2.9481 17.0234 3.15309 16.859 3.41766 16.859C3.70369 16.859 3.84671 17.0425 3.84671 17.3714V18.456H4.32104ZM10.6852 16.4919H9.98918V15.8984H9.56013V16.4919H9.17161V16.8804H9.56013V17.7814C9.56013 18.2319 9.74367 18.4965 10.2347 18.4965C10.4182 18.4965 10.6232 18.4345 10.7662 18.3535L10.6423 17.984C10.5183 18.065 10.3753 18.0865 10.2728 18.0865C10.0678 18.0865 9.98679 17.9626 9.98679 17.7599V16.8804H10.6828V16.4919H10.6852ZM14.3273 16.449C14.0818 16.449 13.9173 16.5729 13.8148 16.735V16.4895H13.3858V18.4536H13.8148V17.3476C13.8148 17.021 13.9578 16.8351 14.2248 16.8351C14.3058 16.8351 14.4083 16.8566 14.4917 16.8756L14.6157 16.4657C14.5299 16.449 14.4083 16.449 14.3273 16.449ZM8.82361 16.654C8.61862 16.511 8.33259 16.449 8.02511 16.449C7.5341 16.449 7.20755 16.6945 7.20755 17.083C7.20755 17.4096 7.45305 17.5955 7.8821 17.6551L8.08708 17.6765C8.31114 17.717 8.43509 17.779 8.43509 17.8815C8.43509 18.0245 8.27062 18.127 7.98459 18.127C7.69856 18.127 7.47212 18.0245 7.32911 17.922L7.12412 18.2486C7.34818 18.413 7.65566 18.4941 7.96314 18.4941C8.5352 18.4941 8.86413 18.2271 8.86413 17.8601C8.86413 17.5121 8.59717 17.3285 8.18958 17.2666L7.98459 17.2451C7.80106 17.2236 7.65804 17.1831 7.65804 17.0616C7.65804 16.9185 7.80106 16.8375 8.0275 16.8375C8.273 16.8375 8.51851 16.94 8.64246 17.002L8.82361 16.654ZM20.2385 16.449C19.993 16.449 19.8286 16.5729 19.7261 16.735V16.4895H19.297V18.4536H19.7261V17.3476C19.7261 17.021 19.8691 16.8351 20.136 16.8351C20.2171 16.8351 20.3196 16.8566 20.403 16.8756L20.527 16.4704C20.4435 16.449 20.322 16.449 20.2385 16.449ZM14.7563 17.4739C14.7563 18.0674 15.1663 18.4965 15.8003 18.4965C16.0864 18.4965 16.2913 18.4345 16.4963 18.2724L16.2913 17.9244C16.1269 18.0484 15.9648 18.108 15.7789 18.108C15.4309 18.108 15.1854 17.8624 15.1854 17.4739C15.1854 17.1045 15.4309 16.859 15.7789 16.8399C15.9624 16.8399 16.1269 16.9019 16.2913 17.0234L16.4963 16.6754C16.2913 16.511 16.0864 16.4514 15.8003 16.4514C15.1663 16.449 14.7563 16.8804 14.7563 17.4739ZM18.725 17.4739V16.4919H18.2959V16.7374C18.1529 16.5539 17.9479 16.4514 17.681 16.4514C17.128 16.4514 16.6989 16.8804 16.6989 17.4739C16.6989 18.0674 17.128 18.4965 17.681 18.4965C17.967 18.4965 18.172 18.394 18.2959 18.2104V18.456H18.725V17.4739ZM17.1494 17.4739C17.1494 17.1259 17.3735 16.8399 17.7429 16.8399C18.0909 16.8399 18.3364 17.1069 18.3364 17.4739C18.3364 17.8219 18.0909 18.108 17.7429 18.108C17.3759 18.0865 17.1494 17.8195 17.1494 17.4739ZM12.0152 16.449C11.4432 16.449 11.0332 16.859 11.0332 17.4715C11.0332 18.0865 11.4432 18.4941 12.0367 18.4941C12.3227 18.4941 12.6087 18.4131 12.8352 18.2271L12.6302 17.9196C12.4657 18.0436 12.2607 18.1246 12.0581 18.1246C11.7912 18.1246 11.5266 18.0007 11.4646 17.6551H12.9162C12.9162 17.5931 12.9162 17.5526 12.9162 17.4906C12.9353 16.859 12.5658 16.449 12.0152 16.449ZM12.0152 16.8184C12.2822 16.8184 12.4657 16.9829 12.5062 17.288H11.4837C11.5242 17.0234 11.7077 16.8184 12.0152 16.8184ZM22.6746 17.4739V15.7148H22.2455V16.7374C22.1025 16.5539 21.8975 16.4514 21.6305 16.4514C21.0776 16.4514 20.6485 16.8804 20.6485 17.4739C20.6485 18.0674 21.0776 18.4965 21.6305 18.4965C21.9166 18.4965 22.1216 18.394 22.2455 18.2104V18.456H22.6746V17.4739ZM21.099 17.4739C21.099 17.1259 21.3231 16.8399 21.6925 16.8399C22.0405 16.8399 22.286 17.1069 22.286 17.4739C22.286 17.8219 22.0405 18.108 21.6925 18.108C21.3231 18.0865 21.099 17.8195 21.099 17.4739ZM6.7356 17.4739V16.4919H6.30655V16.7374C6.16354 16.5539 5.95855 16.4514 5.69159 16.4514C5.1386 16.4514 4.70956 16.8804 4.70956 17.4739C4.70956 18.0674 5.1386 18.4965 5.69159 18.4965C5.97762 18.4965 6.18261 18.394 6.30655 18.2104V18.456H6.7356V17.4739ZM5.14099 17.4739C5.14099 17.1259 5.36504 16.8399 5.7345 16.8399C6.0825 16.8399 6.32801 17.1069 6.32801 17.4739C6.32801 17.8219 6.0825 18.108 5.7345 18.108C5.36504 18.0865 5.14099 17.8195 5.14099 17.4739Z" fill="white"/>
<path d="M15.1171 1.57532H8.67188V13.1547H15.1171V1.57532Z" fill="#FF5A00"/>
<path d="M9.10135 7.365C9.10135 5.01241 10.2073 2.9244 11.9044 1.5753C10.6554 0.593266 9.07989 -0.000244141 7.36134 -0.000244141C3.29019 -0.000244141 -0.00390625 3.29385 -0.00390625 7.365C-0.00390625 11.4361 3.29019 14.7302 7.36134 14.7302C9.07989 14.7302 10.6554 14.1367 11.9044 13.1547C10.2049 11.8247 9.10135 9.71759 9.10135 7.365Z" fill="#EB001B"/>
<path d="M23.8146 7.365C23.8146 11.4361 20.5205 14.7302 16.4493 14.7302C14.7308 14.7302 13.1552 14.1367 11.9062 13.1547C13.6248 11.8032 14.7093 9.71759 14.7093 7.365C14.7093 5.01241 13.6034 2.9244 11.9062 1.5753C13.1529 0.593266 14.7284 -0.000244141 16.447 -0.000244141C20.5205 -0.000244141 23.8146 3.31531 23.8146 7.365Z" fill="#F79E1B"/>
</g>
<defs>
<clipPath id="clip0_315_6494">
<rect width="23.8167" height="18.4965" fill="white"/>
</clipPath>
</defs>
</svg>
