<svg width="17" height="16" viewBox="0 0 17 16" fill="none" xmlns="http://www.w3.org/2000/svg">
<path fill-rule="evenodd" clip-rule="evenodd" d="M7.29384 1.08569C7.48509 0.725689 7.85934 0.499939 8.26734 0.499939C8.67534 0.499939 9.04959 0.725689 9.24084 1.08569L11.0881 4.56944C11.1091 4.60994 11.1398 4.64444 11.1766 4.67144C11.2133 4.69844 11.2561 4.71644 11.3011 4.72394L15.1846 5.40419C15.5866 5.47469 15.9158 5.76119 16.0426 6.14894C16.1686 6.53669 16.0703 6.96269 15.7861 7.25594L13.0441 10.0894C13.0126 10.1224 12.9886 10.1622 12.9743 10.2049C12.9601 10.2484 12.9563 10.2942 12.9623 10.3399L13.5151 14.2437C13.5721 14.6472 13.4018 15.0499 13.0718 15.2899C12.7418 15.5299 12.3068 15.5674 11.9401 15.3882L8.39859 13.6557C8.35809 13.6354 8.31309 13.6249 8.26734 13.6249C8.22159 13.6249 8.17659 13.6354 8.13534 13.6549L4.59384 15.3874C4.22709 15.5667 3.79209 15.5284 3.46209 15.2892C3.13209 15.0492 2.96184 14.6472 3.01884 14.2429L3.57159 10.3392C3.57834 10.2942 3.57384 10.2477 3.55959 10.2042C3.54534 10.1607 3.52209 10.1209 3.48984 10.0887L0.747844 7.25519C0.464344 6.96194 0.365344 6.53594 0.491344 6.14819C0.617344 5.76044 0.947344 5.47394 1.34934 5.40344L5.23284 4.72319C5.27784 4.71494 5.32059 4.69694 5.35734 4.67069C5.39409 4.64369 5.42484 4.60919 5.44584 4.56869L7.29384 1.08569Z" fill="url(#paint0_linear_466_629)"/>
<defs>
<linearGradient id="paint0_linear_466_629" x1="8.26704" y1="0.499939" x2="8.26704" y2="15.5004" gradientUnits="userSpaceOnUse">
<stop stop-color="#FFA53C"/>
<stop offset="1" stop-color="#F5BA40"/>
</linearGradient>
</defs>
</svg>
