<svg width="31" height="10" viewBox="0 0 31 10" fill="none" xmlns="http://www.w3.org/2000/svg">
<g clip-path="url(#clip0_315_6487)">
<path d="M13.3975 9.85556H10.8945L12.4601 0.175293H14.963L13.3975 9.85556Z" fill="#00579F"/>
<path d="M22.4693 0.412005C21.9756 0.216139 21.1925 -0.00012207 20.2243 -0.00012207C17.7525 -0.00012207 16.0119 1.31797 16.0012 3.20245C15.9806 4.59282 17.2474 5.36506 18.1949 5.82865C19.1632 6.30237 19.4924 6.61157 19.4924 7.03382C19.4826 7.68233 18.7099 7.98127 17.9893 7.98127C16.99 7.98127 16.4545 7.82714 15.6408 7.46635L15.3112 7.31168L14.9609 9.48469C15.548 9.75214 16.6296 9.98948 17.7525 9.99988C20.3788 9.99988 22.0886 8.70218 22.1089 6.69397C22.1189 5.592 21.45 4.74762 20.0079 4.05764C19.1324 3.61472 18.5963 3.31606 18.5963 2.86287C18.6066 2.45088 19.0498 2.0289 20.038 2.0289C20.8517 2.00823 21.4496 2.20382 21.9025 2.39955L22.1289 2.50234L22.4693 0.412005V0.412005Z" fill="#00579F"/>
<path d="M25.7984 6.42618C26.0045 5.87007 26.7977 3.71772 26.7977 3.71772C26.7873 3.73839 27.0034 3.15134 27.127 2.79095L27.3019 3.62506C27.3019 3.62506 27.7759 5.9422 27.8788 6.42618C27.4876 6.42618 26.2927 6.42618 25.7984 6.42618ZM28.888 0.175293H26.9519C26.3549 0.175293 25.9013 0.350218 25.6437 0.978469L21.9258 9.85542H24.5521C24.5521 9.85542 24.9845 8.66065 25.0774 8.40333C25.3656 8.40333 27.9204 8.40333 28.2911 8.40333C28.363 8.74318 28.5898 9.85542 28.5898 9.85542H30.9073L28.888 0.175293V0.175293Z" fill="#00579F"/>
<path d="M8.80081 0.175293L6.34954 6.77631L6.08167 5.43754C5.62849 3.89279 4.20719 2.21444 2.62109 1.37992L4.86637 9.84529H7.51324L11.4475 0.175293H8.80081V0.175293Z" fill="#00579F"/>
<path d="M4.07611 0.175293H0.0490113L0.0078125 0.370886C3.1492 1.1742 5.22968 3.11055 6.08446 5.43795L5.20902 0.989008C5.06489 0.370749 4.62197 0.195687 4.07611 0.175293Z" fill="#FAA61A"/>
</g>
<defs>
<clipPath id="clip0_315_6487">
<rect width="30.8987" height="10" fill="white"/>
</clipPath>
</defs>
</svg>
