<svg width="48" height="48" viewBox="0 0 48 48" fill="none" xmlns="http://www.w3.org/2000/svg">
<path opacity="0.4" d="M10.2152 29.1354C7.84232 26.1179 7.84232 21.8807 10.2152 18.8632C13.0004 15.3229 17.5961 11.25 24.0008 11.25C30.4056 11.25 35.0012 15.3229 37.7864 18.8646C40.1593 21.8821 40.1593 26.1193 37.7864 29.1368C35.0012 32.6771 30.4056 36.75 24.0008 36.75C17.5961 36.75 13.0004 32.6771 10.2152 29.1354Z" fill="#EF8868"/>
<path d="M24 15.5C19.3052 15.5 15.5 19.3052 15.5 24C15.5 28.6948 19.3052 32.5 24 32.5C28.6948 32.5 32.5 28.6948 32.5 24C32.5 19.3052 28.6948 15.5 24 15.5ZM25.4167 25.4167C23.8512 25.4167 22.5833 24.1487 22.5833 22.5833C22.5833 21.0179 23.8512 19.75 25.4167 19.75C26.9821 19.75 28.25 21.0179 28.25 22.5833C28.25 24.1487 26.9821 25.4167 25.4167 25.4167Z" fill="#EF8868"/>
</svg>
