<svg width="20" height="20" viewBox="0 0 20 20" fill="none" xmlns="http://www.w3.org/2000/svg">
<path opacity="0.4" d="M16.668 7.5H3.33464C2.4138 7.5 1.66797 8.24583 1.66797 9.16667V15.8333C1.66797 16.7542 2.4138 17.5 3.33464 17.5H16.668C17.5888 17.5 18.3346 16.7542 18.3346 15.8333V9.16667C18.3346 8.24583 17.5888 7.5 16.668 7.5Z" fill="#27AE60"/>
<path opacity="0.4" d="M3.96549 7.50002L15.1022 5.03919C15.298 4.99585 15.493 4.99502 15.6805 5.02002L14.7497 3.35502C14.3005 2.55169 13.2847 2.26419 12.4813 2.71335L3.92383 7.50002H3.96549Z" fill="#27AE60"/>
<path d="M9.9987 15.8334C11.6095 15.8334 12.9154 14.341 12.9154 12.5001C12.9154 10.6591 11.6095 9.16675 9.9987 9.16675C8.38787 9.16675 7.08203 10.6591 7.08203 12.5001C7.08203 14.341 8.38787 15.8334 9.9987 15.8334Z" fill="#27AE60"/>
<path d="M15.8333 13.3333C16.2936 13.3333 16.6667 12.9602 16.6667 12.5C16.6667 12.0397 16.2936 11.6666 15.8333 11.6666C15.3731 11.6666 15 12.0397 15 12.5C15 12.9602 15.3731 13.3333 15.8333 13.3333Z" fill="#27AE60"/>
<path d="M4.16536 13.3334C4.6256 13.3334 4.9987 12.9603 4.9987 12.5001C4.9987 12.0398 4.6256 11.6667 4.16536 11.6667C3.70513 11.6667 3.33203 12.0398 3.33203 12.5001C3.33203 12.9603 3.70513 13.3334 4.16536 13.3334Z" fill="#27AE60"/>
<path d="M16.6673 7.49994C16.9273 7.49994 17.1707 7.56494 17.3898 7.67077L17.0882 6.30744C16.8898 5.40827 15.9998 4.84077 15.1015 5.03994L3.96484 7.49994H16.6673Z" fill="#27AE60"/>
</svg>
